<mxfile host="Electron" modified="2024-11-17T00:48:29.195Z" agent="Mozilla/5.0 (Windows NT 10.0; Win64; x64) AppleWebKit/537.36 (KHTML, like Gecko) draw.io/22.0.3 Chrome/114.0.5735.289 Electron/25.8.4 Safari/537.36" etag="doePQI2SyUlUex6a4mMf" version="22.0.3" type="device">
  <diagram name="Page-1" id="07z4XHB6O48ZKq5hJepJ">
    <mxGraphModel dx="2142" dy="912" grid="1" gridSize="10" guides="1" tooltips="1" connect="1" arrows="1" fold="1" page="1" pageScale="1" pageWidth="850" pageHeight="1100" math="0" shadow="0">
      <root>
        <mxCell id="0" />
        <mxCell id="1" parent="0" />
        <mxCell id="LKl2Jvdba8H1Q5ZhJWJy-7" style="edgeStyle=orthogonalEdgeStyle;rounded=0;orthogonalLoop=1;jettySize=auto;html=1;exitX=0.5;exitY=1;exitDx=0;exitDy=0;entryX=0.5;entryY=0;entryDx=0;entryDy=0;" edge="1" parent="1" source="LKl2Jvdba8H1Q5ZhJWJy-6" target="LKl2Jvdba8H1Q5ZhJWJy-8">
          <mxGeometry relative="1" as="geometry">
            <mxPoint x="480.2413793103449" y="480" as="targetPoint" />
          </mxGeometry>
        </mxCell>
        <mxCell id="LKl2Jvdba8H1Q5ZhJWJy-6" value="Read Keyboard" style="ellipse;whiteSpace=wrap;html=1;" vertex="1" parent="1">
          <mxGeometry x="420" y="340" width="120" height="60" as="geometry" />
        </mxCell>
        <mxCell id="LKl2Jvdba8H1Q5ZhJWJy-35" style="edgeStyle=orthogonalEdgeStyle;rounded=0;orthogonalLoop=1;jettySize=auto;html=1;exitX=0;exitY=0.5;exitDx=0;exitDy=0;entryX=1;entryY=0.5;entryDx=0;entryDy=0;" edge="1" parent="1" source="LKl2Jvdba8H1Q5ZhJWJy-8" target="LKl2Jvdba8H1Q5ZhJWJy-16">
          <mxGeometry relative="1" as="geometry" />
        </mxCell>
        <mxCell id="LKl2Jvdba8H1Q5ZhJWJy-8" value="Is Numpad&lt;br&gt;Connected?" style="rhombus;whiteSpace=wrap;html=1;" vertex="1" parent="1">
          <mxGeometry x="420" y="440" width="120" height="80" as="geometry" />
        </mxCell>
        <mxCell id="LKl2Jvdba8H1Q5ZhJWJy-11" value="Yes" style="text;html=1;align=center;verticalAlign=middle;resizable=0;points=[];autosize=1;strokeColor=none;fillColor=none;" vertex="1" parent="1">
          <mxGeometry x="360" y="450" width="40" height="30" as="geometry" />
        </mxCell>
        <mxCell id="LKl2Jvdba8H1Q5ZhJWJy-12" value="No" style="text;html=1;align=center;verticalAlign=middle;resizable=0;points=[];autosize=1;strokeColor=none;fillColor=none;" vertex="1" parent="1">
          <mxGeometry x="570" y="450" width="40" height="30" as="geometry" />
        </mxCell>
        <mxCell id="LKl2Jvdba8H1Q5ZhJWJy-13" value="" style="endArrow=classic;html=1;rounded=0;exitX=1;exitY=0.5;exitDx=0;exitDy=0;entryX=0;entryY=0.5;entryDx=0;entryDy=0;" edge="1" parent="1" source="LKl2Jvdba8H1Q5ZhJWJy-8" target="LKl2Jvdba8H1Q5ZhJWJy-14">
          <mxGeometry width="50" height="50" relative="1" as="geometry">
            <mxPoint x="650" y="540" as="sourcePoint" />
            <mxPoint x="600" y="480" as="targetPoint" />
          </mxGeometry>
        </mxCell>
        <mxCell id="LKl2Jvdba8H1Q5ZhJWJy-17" style="edgeStyle=orthogonalEdgeStyle;rounded=0;orthogonalLoop=1;jettySize=auto;html=1;exitX=0.5;exitY=1;exitDx=0;exitDy=0;entryX=0.5;entryY=0;entryDx=0;entryDy=0;" edge="1" parent="1" source="LKl2Jvdba8H1Q5ZhJWJy-14" target="LKl2Jvdba8H1Q5ZhJWJy-20">
          <mxGeometry relative="1" as="geometry">
            <mxPoint x="779.8965517241379" y="600" as="targetPoint" />
          </mxGeometry>
        </mxCell>
        <mxCell id="LKl2Jvdba8H1Q5ZhJWJy-14" value="Pass &quot;Unpressed&quot; input (Logic High/+3v3)" style="rounded=0;whiteSpace=wrap;html=1;" vertex="1" parent="1">
          <mxGeometry x="720" y="450" width="120" height="60" as="geometry" />
        </mxCell>
        <mxCell id="LKl2Jvdba8H1Q5ZhJWJy-24" style="edgeStyle=orthogonalEdgeStyle;rounded=0;orthogonalLoop=1;jettySize=auto;html=1;exitX=0.5;exitY=1;exitDx=0;exitDy=0;entryX=0.5;entryY=0;entryDx=0;entryDy=0;" edge="1" parent="1" source="LKl2Jvdba8H1Q5ZhJWJy-16" target="LKl2Jvdba8H1Q5ZhJWJy-22">
          <mxGeometry relative="1" as="geometry" />
        </mxCell>
        <mxCell id="LKl2Jvdba8H1Q5ZhJWJy-16" value="Pass Numpad Inputs" style="rounded=0;whiteSpace=wrap;html=1;" vertex="1" parent="1">
          <mxGeometry x="80" y="450" width="120" height="60" as="geometry" />
        </mxCell>
        <mxCell id="LKl2Jvdba8H1Q5ZhJWJy-38" style="edgeStyle=orthogonalEdgeStyle;rounded=0;orthogonalLoop=1;jettySize=auto;html=1;exitX=0;exitY=0.5;exitDx=0;exitDy=0;entryX=1;entryY=0.5;entryDx=0;entryDy=0;" edge="1" parent="1" source="LKl2Jvdba8H1Q5ZhJWJy-20" target="LKl2Jvdba8H1Q5ZhJWJy-37">
          <mxGeometry relative="1" as="geometry" />
        </mxCell>
        <mxCell id="LKl2Jvdba8H1Q5ZhJWJy-40" style="edgeStyle=orthogonalEdgeStyle;rounded=0;orthogonalLoop=1;jettySize=auto;html=1;exitX=1;exitY=0.5;exitDx=0;exitDy=0;entryX=0;entryY=0.5;entryDx=0;entryDy=0;" edge="1" parent="1" source="LKl2Jvdba8H1Q5ZhJWJy-20" target="LKl2Jvdba8H1Q5ZhJWJy-39">
          <mxGeometry relative="1" as="geometry" />
        </mxCell>
        <mxCell id="LKl2Jvdba8H1Q5ZhJWJy-20" value="Is Right Side&lt;br&gt;Connected?" style="rhombus;whiteSpace=wrap;html=1;" vertex="1" parent="1">
          <mxGeometry x="720" y="560" width="120" height="80" as="geometry" />
        </mxCell>
        <mxCell id="LKl2Jvdba8H1Q5ZhJWJy-29" style="edgeStyle=orthogonalEdgeStyle;rounded=0;orthogonalLoop=1;jettySize=auto;html=1;exitX=1;exitY=0.5;exitDx=0;exitDy=0;entryX=0;entryY=0.5;entryDx=0;entryDy=0;" edge="1" parent="1" source="LKl2Jvdba8H1Q5ZhJWJy-22" target="LKl2Jvdba8H1Q5ZhJWJy-31">
          <mxGeometry relative="1" as="geometry">
            <mxPoint x="270" y="600.1379310344828" as="targetPoint" />
          </mxGeometry>
        </mxCell>
        <mxCell id="LKl2Jvdba8H1Q5ZhJWJy-34" style="edgeStyle=orthogonalEdgeStyle;rounded=0;orthogonalLoop=1;jettySize=auto;html=1;exitX=0;exitY=0.5;exitDx=0;exitDy=0;entryX=1;entryY=0.5;entryDx=0;entryDy=0;" edge="1" parent="1" source="LKl2Jvdba8H1Q5ZhJWJy-22" target="LKl2Jvdba8H1Q5ZhJWJy-26">
          <mxGeometry relative="1" as="geometry" />
        </mxCell>
        <mxCell id="LKl2Jvdba8H1Q5ZhJWJy-22" value="Is Right Side&lt;br&gt;Connected?" style="rhombus;whiteSpace=wrap;html=1;" vertex="1" parent="1">
          <mxGeometry x="80" y="560" width="120" height="80" as="geometry" />
        </mxCell>
        <mxCell id="LKl2Jvdba8H1Q5ZhJWJy-26" value="Pass Right Side Inputs into first shift register of left side.&lt;br&gt;Numpad Inputs are passed through Right Side." style="rounded=0;whiteSpace=wrap;html=1;" vertex="1" parent="1">
          <mxGeometry x="-120" y="537.5" width="120" height="125" as="geometry" />
        </mxCell>
        <mxCell id="LKl2Jvdba8H1Q5ZhJWJy-27" value="Yes" style="text;html=1;align=center;verticalAlign=middle;resizable=0;points=[];autosize=1;strokeColor=none;fillColor=none;" vertex="1" parent="1">
          <mxGeometry x="20" y="570" width="40" height="30" as="geometry" />
        </mxCell>
        <mxCell id="LKl2Jvdba8H1Q5ZhJWJy-30" value="No" style="text;html=1;align=center;verticalAlign=middle;resizable=0;points=[];autosize=1;strokeColor=none;fillColor=none;" vertex="1" parent="1">
          <mxGeometry x="220" y="570" width="40" height="30" as="geometry" />
        </mxCell>
        <mxCell id="LKl2Jvdba8H1Q5ZhJWJy-31" value="Pass Numpad Inputs.&lt;br&gt;This is the edge case where software will handle it via using a separate key map." style="rounded=0;whiteSpace=wrap;html=1;" vertex="1" parent="1">
          <mxGeometry x="280" y="535" width="120" height="130" as="geometry" />
        </mxCell>
        <mxCell id="LKl2Jvdba8H1Q5ZhJWJy-32" value="Yes" style="text;html=1;align=center;verticalAlign=middle;resizable=0;points=[];autosize=1;strokeColor=none;fillColor=none;" vertex="1" parent="1">
          <mxGeometry x="660" y="570" width="40" height="30" as="geometry" />
        </mxCell>
        <mxCell id="LKl2Jvdba8H1Q5ZhJWJy-36" value="No" style="text;html=1;align=center;verticalAlign=middle;resizable=0;points=[];autosize=1;strokeColor=none;fillColor=none;" vertex="1" parent="1">
          <mxGeometry x="860" y="570" width="40" height="30" as="geometry" />
        </mxCell>
        <mxCell id="LKl2Jvdba8H1Q5ZhJWJy-37" value="Pass Right Side inputs into first shift register of left side. Numpad Inputs are passed through Right Side (in this case, that keys are unpressed)" style="rounded=0;whiteSpace=wrap;html=1;" vertex="1" parent="1">
          <mxGeometry x="520" y="535" width="120" height="130" as="geometry" />
        </mxCell>
        <mxCell id="LKl2Jvdba8H1Q5ZhJWJy-39" value="The &quot;Unpressed&quot; input (Logic High) is propagated to the first shift register. This means that carry-in will always be &quot;1&quot; and will ignore right side and numpad." style="rounded=0;whiteSpace=wrap;html=1;" vertex="1" parent="1">
          <mxGeometry x="920" y="535" width="120" height="130" as="geometry" />
        </mxCell>
      </root>
    </mxGraphModel>
  </diagram>
</mxfile>
